<svg version="1.1" viewBox="0.0 0.0 954.9580052493438 487.0577427821522" fill="none" stroke="none" stroke-linecap="square" stroke-miterlimit="10" xmlns:xlink="http://www.w3.org/1999/xlink" xmlns="http://www.w3.org/2000/svg"><clipPath id="p.0"><path d="m0 0l954.958 0l0 487.05774l-954.958 0l0 -487.05774z" clip-rule="nonzero"/></clipPath><g clip-path="url(#p.0)"><path fill="#000000" fill-opacity="0.0" d="m0 0l954.958 0l0 487.05774l-954.958 0z" fill-rule="evenodd"/><path fill="#000000" fill-opacity="0.0" d="m374.74277 115.7231l440.0945 0l0 261.7953l-440.0945 0z" fill-rule="evenodd"/><path fill="#c72c48" d="m426.14902 316.72308l-27.40625 0l0 -138.29686l27.40625 0l0 138.29686zm1.0 -73.79686l43.59375 -64.5l29.40625 0l-44.40625 62.5l48.203125 75.79686l-32.296875 0l-44.5 -73.79686z" fill-rule="nonzero"/><path fill="#c72c48" d="m558.41394 198.62935l0 37.890625l49.0 0l0 19.906235l-49.0 0l0 40.203125l59.5 0l0 20.09375l-86.890625 0l0 -138.29686l86.1875 0l-2.796875 20.203125l-56.0 0z" fill-rule="nonzero"/><path fill="#c72c48" d="m747.8976 277.01996q0 12.609375 -6.453125 22.203125q-6.453125 9.59375 -18.5625 15.046875q-12.09375 5.453125 -29.296875 5.453125q-18.0 0 -30.90625 -5.34375q-12.890625 -5.359375 -21.59375 -13.75l14.40625 -16.109375q7.5 6.703125 16.796875 10.5q9.296875 3.796875 20.90625 3.796875q7.390625 0 13.34375 -2.296875q5.953125 -2.296875 9.40625 -6.75q3.453125 -4.453125 3.453125 -10.953125q0 -5.6875 -2.40625 -9.59375q-2.40625 -3.90625 -8.25 -7.0q-5.84375 -3.09375 -16.25 -6.203125q-15.296875 -4.7031097 -25.203125 -10.343735q-9.890625 -5.65625 -14.703125 -13.40625q-4.796875 -7.75 -4.796875 -18.34375q0 -11.90625 6.59375 -20.546875q6.609375 -8.65625 17.859375 -13.296875q11.25 -4.65625 25.15625 -4.65625q15.390625 0 27.09375 4.453125q11.703125 4.4375 20.59375 12.640625l-13.6875 15.5q-7.109375 -6.09375 -15.359375 -8.984375q-8.25 -2.90625 -16.75 -2.90625q-6.703125 0 -11.953125 1.796875q-5.25 1.796875 -8.25 5.296875q-3.0 3.5 -3.0 8.90625q0 4.890625 2.75 8.34375q2.75 3.453125 9.453125 6.40625q6.703125 2.9375 18.40625 6.640625q12.296875 3.703125 21.546875 8.90625q9.25 5.203125 14.453125 13.453125q5.203125 8.249985 5.203125 21.14061z" fill-rule="nonzero"/><path fill="#000000" fill-opacity="0.0" d="m140.11942 379.6399l0 -272.22046l271.49606 0l0 272.22046z" fill-rule="evenodd"/><path fill="#c72c48" d="m200.81503 199.44916l72.6875 118.5625l20.078125 0l73.515625 -118.5625l0 -19.546875l-166.28125 0l0 19.546875zm142.6875 0l-59.90625 98.5l-59.078125 -98.5l118.984375 0z" fill-rule="nonzero"/></g></svg>